<mxfile host="app.diagrams.net" modified="2021-03-10T06:44:48.015Z" agent="5.0 (Windows NT 10.0; Win64; x64) AppleWebKit/537.36 (KHTML, like Gecko) Chrome/89.0.4389.82 Safari/537.36" etag="CvRg3ceLBQQkoJKnQX-W" version="14.4.6" type="github">
  <diagram id="C5RBs43oDa-KdzZeNtuy" name="Page-1">
    <mxGraphModel dx="1422" dy="737" grid="1" gridSize="10" guides="1" tooltips="1" connect="1" arrows="1" fold="1" page="1" pageScale="1" pageWidth="827" pageHeight="1169" math="0" shadow="0">
      <root>
        <mxCell id="WIyWlLk6GJQsqaUBKTNV-0" />
        <mxCell id="WIyWlLk6GJQsqaUBKTNV-1" parent="WIyWlLk6GJQsqaUBKTNV-0" />
        <mxCell id="iqdHAsao78Tul293t3r8-20" style="edgeStyle=orthogonalEdgeStyle;rounded=0;orthogonalLoop=1;jettySize=auto;html=1;entryX=0.5;entryY=0;entryDx=0;entryDy=0;" edge="1" parent="WIyWlLk6GJQsqaUBKTNV-1" source="iqdHAsao78Tul293t3r8-21" target="iqdHAsao78Tul293t3r8-24">
          <mxGeometry relative="1" as="geometry" />
        </mxCell>
        <mxCell id="iqdHAsao78Tul293t3r8-21" value="Dashboard Code" style="rounded=1;whiteSpace=wrap;html=1;fontSize=12;glass=0;strokeWidth=1;shadow=0;fillColor=#fff2cc;strokeColor=#d6b656;" vertex="1" parent="WIyWlLk6GJQsqaUBKTNV-1">
          <mxGeometry x="364" y="120" width="120" height="40" as="geometry" />
        </mxCell>
        <mxCell id="iqdHAsao78Tul293t3r8-41" style="edgeStyle=orthogonalEdgeStyle;rounded=0;orthogonalLoop=1;jettySize=auto;html=1;" edge="1" parent="WIyWlLk6GJQsqaUBKTNV-1" source="iqdHAsao78Tul293t3r8-22" target="iqdHAsao78Tul293t3r8-40">
          <mxGeometry relative="1" as="geometry" />
        </mxCell>
        <mxCell id="iqdHAsao78Tul293t3r8-22" value="Dashboard Binaries" style="rounded=1;whiteSpace=wrap;html=1;fontSize=12;glass=0;strokeWidth=1;shadow=0;fillColor=#fff2cc;strokeColor=#d6b656;" vertex="1" parent="WIyWlLk6GJQsqaUBKTNV-1">
          <mxGeometry x="364" y="360" width="120" height="40" as="geometry" />
        </mxCell>
        <mxCell id="iqdHAsao78Tul293t3r8-23" style="edgeStyle=orthogonalEdgeStyle;rounded=0;orthogonalLoop=1;jettySize=auto;html=1;entryX=0.5;entryY=0;entryDx=0;entryDy=0;" edge="1" parent="WIyWlLk6GJQsqaUBKTNV-1" source="iqdHAsao78Tul293t3r8-24" target="iqdHAsao78Tul293t3r8-22">
          <mxGeometry relative="1" as="geometry" />
        </mxCell>
        <mxCell id="iqdHAsao78Tul293t3r8-24" value="Compiler" style="rounded=1;whiteSpace=wrap;html=1;fontSize=12;glass=0;strokeWidth=1;shadow=0;fillColor=#fff2cc;strokeColor=#d6b656;" vertex="1" parent="WIyWlLk6GJQsqaUBKTNV-1">
          <mxGeometry x="364" y="240" width="120" height="40" as="geometry" />
        </mxCell>
        <mxCell id="iqdHAsao78Tul293t3r8-25" value="Jsonnet&lt;br&gt;JS Library" style="text;html=1;strokeColor=none;fillColor=none;align=center;verticalAlign=middle;whiteSpace=wrap;rounded=0;" vertex="1" parent="WIyWlLk6GJQsqaUBKTNV-1">
          <mxGeometry x="600" y="130" width="80" height="20" as="geometry" />
        </mxCell>
        <mxCell id="iqdHAsao78Tul293t3r8-26" value="Grafonnet&lt;br&gt;Node&lt;br&gt;&lt;br&gt;" style="text;html=1;strokeColor=none;fillColor=none;align=center;verticalAlign=middle;whiteSpace=wrap;rounded=0;" vertex="1" parent="WIyWlLk6GJQsqaUBKTNV-1">
          <mxGeometry x="615" y="250" width="40" height="20" as="geometry" />
        </mxCell>
        <mxCell id="iqdHAsao78Tul293t3r8-27" value="JSON" style="text;html=1;align=center;verticalAlign=middle;resizable=0;points=[];autosize=1;" vertex="1" parent="WIyWlLk6GJQsqaUBKTNV-1">
          <mxGeometry x="610" y="370" width="50" height="20" as="geometry" />
        </mxCell>
        <mxCell id="iqdHAsao78Tul293t3r8-28" value="Abstract Entity" style="text;html=1;strokeColor=none;fillColor=none;align=center;verticalAlign=middle;whiteSpace=wrap;rounded=0;" vertex="1" parent="WIyWlLk6GJQsqaUBKTNV-1">
          <mxGeometry x="379" y="70" width="90" height="20" as="geometry" />
        </mxCell>
        <mxCell id="iqdHAsao78Tul293t3r8-29" value="Concrete Entity" style="text;html=1;strokeColor=none;fillColor=none;align=center;verticalAlign=middle;whiteSpace=wrap;rounded=0;" vertex="1" parent="WIyWlLk6GJQsqaUBKTNV-1">
          <mxGeometry x="585" y="70" width="90" height="20" as="geometry" />
        </mxCell>
        <mxCell id="iqdHAsao78Tul293t3r8-30" value="" style="endArrow=none;dashed=1;html=1;dashPattern=1 3;strokeWidth=2;entryX=1;entryY=0.5;entryDx=0;entryDy=0;" edge="1" parent="WIyWlLk6GJQsqaUBKTNV-1" source="iqdHAsao78Tul293t3r8-25" target="iqdHAsao78Tul293t3r8-21">
          <mxGeometry width="50" height="50" relative="1" as="geometry">
            <mxPoint x="550" y="460" as="sourcePoint" />
            <mxPoint x="600" y="410" as="targetPoint" />
          </mxGeometry>
        </mxCell>
        <mxCell id="iqdHAsao78Tul293t3r8-31" value="" style="endArrow=none;dashed=1;html=1;dashPattern=1 3;strokeWidth=2;entryX=1;entryY=0.5;entryDx=0;entryDy=0;" edge="1" parent="WIyWlLk6GJQsqaUBKTNV-1">
          <mxGeometry width="50" height="50" relative="1" as="geometry">
            <mxPoint x="610" y="259.5" as="sourcePoint" />
            <mxPoint x="484" y="259.5" as="targetPoint" />
          </mxGeometry>
        </mxCell>
        <mxCell id="iqdHAsao78Tul293t3r8-32" value="" style="endArrow=none;dashed=1;html=1;dashPattern=1 3;strokeWidth=2;entryX=1;entryY=0.5;entryDx=0;entryDy=0;" edge="1" parent="WIyWlLk6GJQsqaUBKTNV-1">
          <mxGeometry width="50" height="50" relative="1" as="geometry">
            <mxPoint x="615" y="379.5" as="sourcePoint" />
            <mxPoint x="489" y="379.5" as="targetPoint" />
          </mxGeometry>
        </mxCell>
        <mxCell id="iqdHAsao78Tul293t3r8-33" style="edgeStyle=orthogonalEdgeStyle;rounded=0;orthogonalLoop=1;jettySize=auto;html=1;exitX=0.5;exitY=0.5;exitDx=0;exitDy=0;exitPerimeter=0;entryX=0;entryY=0.5;entryDx=0;entryDy=0;" edge="1" parent="WIyWlLk6GJQsqaUBKTNV-1" source="iqdHAsao78Tul293t3r8-39" target="iqdHAsao78Tul293t3r8-21">
          <mxGeometry relative="1" as="geometry">
            <Array as="points">
              <mxPoint x="210" y="260" />
              <mxPoint x="210" y="140" />
            </Array>
          </mxGeometry>
        </mxCell>
        <mxCell id="iqdHAsao78Tul293t3r8-34" value="schreibt" style="edgeLabel;html=1;align=center;verticalAlign=middle;resizable=0;points=[];" vertex="1" connectable="0" parent="iqdHAsao78Tul293t3r8-33">
          <mxGeometry x="0.3769" y="-1" relative="1" as="geometry">
            <mxPoint x="40" y="-1" as="offset" />
          </mxGeometry>
        </mxCell>
        <mxCell id="iqdHAsao78Tul293t3r8-35" style="edgeStyle=orthogonalEdgeStyle;rounded=0;orthogonalLoop=1;jettySize=auto;html=1;entryX=0;entryY=0.5;entryDx=0;entryDy=0;" edge="1" parent="WIyWlLk6GJQsqaUBKTNV-1" source="iqdHAsao78Tul293t3r8-39" target="iqdHAsao78Tul293t3r8-24">
          <mxGeometry relative="1" as="geometry" />
        </mxCell>
        <mxCell id="iqdHAsao78Tul293t3r8-36" value="gibt Code an" style="edgeLabel;html=1;align=center;verticalAlign=middle;resizable=0;points=[];" vertex="1" connectable="0" parent="iqdHAsao78Tul293t3r8-35">
          <mxGeometry x="0.2727" y="3" relative="1" as="geometry">
            <mxPoint as="offset" />
          </mxGeometry>
        </mxCell>
        <mxCell id="iqdHAsao78Tul293t3r8-37" style="edgeStyle=orthogonalEdgeStyle;rounded=0;orthogonalLoop=1;jettySize=auto;html=1;entryX=0;entryY=0.5;entryDx=0;entryDy=0;" edge="1" parent="WIyWlLk6GJQsqaUBKTNV-1" source="iqdHAsao78Tul293t3r8-39" target="iqdHAsao78Tul293t3r8-22">
          <mxGeometry relative="1" as="geometry">
            <Array as="points">
              <mxPoint x="210" y="260" />
              <mxPoint x="210" y="380" />
            </Array>
          </mxGeometry>
        </mxCell>
        <mxCell id="iqdHAsao78Tul293t3r8-38" value="Deployt" style="edgeLabel;html=1;align=center;verticalAlign=middle;resizable=0;points=[];" vertex="1" connectable="0" parent="iqdHAsao78Tul293t3r8-37">
          <mxGeometry x="0.6667" y="-3" relative="1" as="geometry">
            <mxPoint x="-20" y="-3" as="offset" />
          </mxGeometry>
        </mxCell>
        <mxCell id="iqdHAsao78Tul293t3r8-39" value="Entwickler" style="shape=umlActor;verticalLabelPosition=bottom;verticalAlign=top;html=1;outlineConnect=0;" vertex="1" parent="WIyWlLk6GJQsqaUBKTNV-1">
          <mxGeometry x="70" y="230" width="30" height="60" as="geometry" />
        </mxCell>
        <mxCell id="iqdHAsao78Tul293t3r8-40" value="Computer" style="rounded=1;whiteSpace=wrap;html=1;fontSize=12;glass=0;strokeWidth=1;shadow=0;fillColor=#d5e8d4;strokeColor=#82b366;" vertex="1" parent="WIyWlLk6GJQsqaUBKTNV-1">
          <mxGeometry x="364" y="480" width="120" height="40" as="geometry" />
        </mxCell>
        <mxCell id="iqdHAsao78Tul293t3r8-42" value="" style="endArrow=none;dashed=1;html=1;dashPattern=1 3;strokeWidth=2;entryX=1;entryY=0.5;entryDx=0;entryDy=0;" edge="1" parent="WIyWlLk6GJQsqaUBKTNV-1">
          <mxGeometry width="50" height="50" relative="1" as="geometry">
            <mxPoint x="610" y="499.5" as="sourcePoint" />
            <mxPoint x="484" y="499.5" as="targetPoint" />
          </mxGeometry>
        </mxCell>
        <mxCell id="iqdHAsao78Tul293t3r8-43" value="Grafana" style="text;html=1;align=center;verticalAlign=middle;resizable=0;points=[];autosize=1;" vertex="1" parent="WIyWlLk6GJQsqaUBKTNV-1">
          <mxGeometry x="610" y="490" width="60" height="20" as="geometry" />
        </mxCell>
        <mxCell id="iqdHAsao78Tul293t3r8-45" style="edgeStyle=orthogonalEdgeStyle;rounded=0;orthogonalLoop=1;jettySize=auto;html=1;entryX=0;entryY=0.5;entryDx=0;entryDy=0;" edge="1" parent="WIyWlLk6GJQsqaUBKTNV-1" source="iqdHAsao78Tul293t3r8-44" target="iqdHAsao78Tul293t3r8-40">
          <mxGeometry relative="1" as="geometry" />
        </mxCell>
        <mxCell id="iqdHAsao78Tul293t3r8-47" value="nutzt" style="edgeLabel;html=1;align=center;verticalAlign=middle;resizable=0;points=[];" vertex="1" connectable="0" parent="iqdHAsao78Tul293t3r8-45">
          <mxGeometry x="0.2336" y="-4" relative="1" as="geometry">
            <mxPoint as="offset" />
          </mxGeometry>
        </mxCell>
        <mxCell id="iqdHAsao78Tul293t3r8-44" value="Facharbeiter" style="shape=umlActor;verticalLabelPosition=bottom;verticalAlign=top;html=1;outlineConnect=0;" vertex="1" parent="WIyWlLk6GJQsqaUBKTNV-1">
          <mxGeometry x="70" y="470" width="30" height="60" as="geometry" />
        </mxCell>
      </root>
    </mxGraphModel>
  </diagram>
</mxfile>
